<?xml version="1.0" encoding="UTF-8"?>
<svg viewBox="0 0 266.67 333.33" xmlns="http://www.w3.org/2000/svg">
 <defs>
  <linearGradient id="b" x1=".13636" x2="8.0455" y1=".51562" y2=".67188">
   <stop stop-color="#eec28a" stop-opacity=".436" offset="0"/>
   <stop stop-color="#fff" stop-opacity=".041" offset="1"/>
  </linearGradient>
  <radialGradient id="a" cx="456.31" cy="448.48" r="35.801" gradientTransform="scale(.83205 1.2018)" gradientUnits="userSpaceOnUse">
   <stop stop-color="#e79b9e" offset="0"/>
   <stop stop-color="#890f18" stop-opacity="0" offset="1"/>
  </radialGradient>
 </defs>
 <g vector-effect="non-scaling-stroke">
  <path d="m-193.31 134.52c1.0077 1.4939 2.7257 4.2546 4.3442 7.1172 1.6185 2.8625 4.3788 7.4002 6.0617 10.105 1.6829 2.7044 4.6286 8.1469 6.5668 12.474s3.7766 8.5048 4.1422 9.226c0.36552 0.72118 0.29521 2.0616 1.8185 4.2176 0.60352 1.6227 1.3843 3.6676 1.8185 4.5691 0.43422 0.90149 2.3516 5.4787 4.2432 10.105 1.8916 4.626 3.8725 9.1414 4.4452 10.105 0.57272 0.96321 1.0951 2.0997 1.1113 2.4603 0.016266 0.36055 0.88708 2.2343 1.9195 4.2176 6.0413 11.605 9.5307 20.754 17.98 50.241 2.8661 10.003 5.887 24.375 7.1695 32.856 0.24539 1.6226 1.0481 7.1778 1.4179 9.3413 0.36978 2.1636 1.4753 7.4592 1.7245 11.426 0.24919 3.9666 1.0225 13.073 2.017 20.646 0.99455 7.5725 1.7871 17.789 2.2192 23.018 0.93126 11.27 4.1183 15.409 4.8564 17.122 1.818 4.2192 3.4503 8.7206 5.4415 10.108 0.90372 0.62955 2.7366 2.4216 4.1422 3.954 1.4055 1.5324 8.6099 6.5756 16.164 10.632 3.0905 1.6593 10.319 6.4302 17.579 9.4895 0.43367 7.63e-4 4.9332 1.8207 10.608 3.6026 7.7661 3.2737 10.454 2.9053 18.077 4.8234 2.8943 0.58462 8.4339 2.4282 10.507 2.8996 2.073 0.47147 5.1321 1.3744 8.8905 2.4603 5.2635 1.0858 8.0783 1.6491 13.235 3.4268 5.6402 1.1335 10.458 2.9134 12.426 3.0753 1.9685 0.16196 5.472 0.82468 7.8802 1.4937 2.4082 0.66919 7.8196 1.7601 11.113 2.021 3.2935 0.7728 8.0805 1.4957 9.4966 1.6694 1.4162 0.17377 4.5843 0.58594 7.072 0.96655 5.9017 0.90292 24.332 2.5702 34.046 3.0754 6.4358 0.33444 21.153 1.1595 52.636 1.4936 11.103 0.11783 21.328 0.91739 26.556 0.4516 4.8811-0.43506 9.5836-0.70718 10.507-0.61511 0.92342 0.09201 2.4823-0.074158 3.435-0.35141 1.0448-0.30414 20.561-2.3863 22.529-2.5481 1.9686-0.16208 28.947-6.7191 29.601-7.205 0.65463-0.48618 12.563-4.0724 15.457-4.657 9.4959-1.9182 9.6757-3.7974 18.69-5.6235 4.2267-1.7817 8.0527-3.2503 8.4864-3.2511 0.43368-7.02e-4 3.3754-1.416 6.4658-3.0753 7.5546-4.0563 27.994-15.865 29.399-17.398 1.4055-1.5323 3.2385-3.3245 4.1422-3.954 1.9912-1.3872 5.4631-5.8886 7.2811-10.108 0.73798-1.7128 3.3119-6.9182 4.2432-18.188 0.43207-5.2287 1.5312-15.712 2.5257-23.285 0.99454-7.5724 2.0744-17.034 2.3236-21 0.24921-3.9666 0.74152-8.9955 1.1113-11.159 0.36975-2.1637 0.86588-5.231 1.1113-6.8536 1.2825-8.481 4.3035-23.208 7.1695-33.21 8.4488-29.487 12.245-40.148 18.286-51.753 1.0325-1.9833 1.9033-3.9449 1.9196-4.3055 0.016235-0.36049 0.5386-1.4091 1.1113-2.3724 0.57272-0.96323 2.5536-5.5665 4.4452-10.192 1.8916-4.626 3.8089-9.1153 4.2432-10.017 0.4342-0.90154 1.3161-2.9464 1.9196-4.5691 0.60352-1.6226 1.3519-3.5842 1.7174-4.3054 0.36554-0.72122 2.204-4.811 4.1422-9.1381s4.9849-10.124 6.6678-12.828c1.6829-2.7045 4.0355-6.7088 5.654-9.5713 1.6186-2.8625 3.7408-6.0757 4.7484-7.1172 1.0077-1.0415 1.8185-2.513 1.8185-3.3389 0-1.4421 1.4164-4.0757-2.8146-5.0023-4.7083-1.0311-13.231-0.97263-16.973 0.17575-4.1379 1.2697-5.4094 2.2164-12.326 8.9624-3.1961 3.1175-6.9451 6.1373-8.2843 6.6779-1.9161 0.77333-4.6794 0.92746-12.831 0.7029-10.672-0.29407-13.544 0.040497-20.61 2.4603-3.8699 1.3253-6.7831 3.7905-13.841 11.686-4.393 4.9145-6.664 5.4492-24.348 5.4477-14.505-0.00116-24.702 0.99129-26.368 2.0209-2.4223 0.82388-4.5861 2.6371-7.476 5.0962-2.8901 2.4592-6.6937 5.3824-8.4864 6.5022-3.1094 1.9421-3.5308 2.0962-9.1936 1.8452-3.3025-0.14641-9.9196-1.2177-14.952-2.3724-10.368-2.3788-17.872-2.7454-22.731-1.0544-1.6668 0.58006-1.7154 0.71464-3.536 1.6695-3.1731 1.8596-5.0135 2.769-9.3956 5.4477-8.7585 5.3539-11.716 6.1176-19.498 5.272-3.4664-0.3766-4.9139-0.95709-9.1936-3.954-2.7874-1.9519-6.1548-4.064-7.5771-4.6569-2.4179-1.0079-2.8929-1.0069-6.4658 0.087845-2.1018 0.644-6.6798 2.6862-10.204 4.4812s-7.6877 3.6361-9.2946 4.1297c-1.6069 0.49361-4.5485 0.90372-6.4658 0.87866-4.6659-0.060959-13.896-3.6427-19.296-7.4686-5.6928-4.0328-8.8168-5.0754-13.942-4.7448-6.0336 0.38919-12.615 1.6564-15.659 3.0753-1.4612 0.68117-4.5581 1.5419-6.8699 1.9331-2.3118 0.39124-5.0726 1.024-6.1627 1.318-1.0901 0.29404-3.9123 0.23291-6.2637-0.087845-4.8632-0.66324-7.803-2.5804-12.73-8.3473-6.0892-7.1279-14.548-8.3707-31.117-4.5691-5.0326 1.1547-11.65 2.226-14.952 2.3724-5.6628 0.25104-6.0841 0.18477-9.1936-1.7573-1.7927-1.1197-5.5964-4.0429-8.4864-6.5021s-6.2013-4.8127-7.3751-5.1841c-4.6834-1.482-11.863-2.0221-26.368-2.021-17.684 0.001434-20.056-0.53319-24.449-5.4477-7.0578-7.8957-9.971-10.273-13.841-11.598-7.0662-2.4198-9.9373-2.8422-20.61-2.5481-8.1512 0.22462-10.915 0.15826-12.831-0.61505-1.3392-0.5405-4.9872-3.5603-8.1833-6.6779-6.9161-6.746-8.2886-7.6926-12.426-8.9624-3.7422-1.1483-12.264-1.2947-16.973-0.2636-4.2311 0.92662-1.3972 7.1113-0.28548 8.6957z" fill="#dba986"/>
  <path d="m-64.76 47.332c-9.9618 0.45128-25.161 5.6354-36.774 13.18-4.1697 2.7088-7.4246 5.3579-10.507 7.2051-2.1868 1.3105-5.4896 3.4849-7.173 4.8327-6.7174 5.378-11.045 8.2757-18.892 12.213-4.5133 2.2646-9.9398 5.0725-12.022 6.2385-5.4451 3.0488-10.641 4.2176-14.043 3.2511-7.1755-2.0387-10.56-5.8442-10.608-11.862 0.27063-5.7979 0.95558-8.7596 1.5154-12.214-0.14911 0.092552-2.9805 1.4476-3.0308 1.4937-4.8616 4.4568-15.682 17.288-16.973 18.716-1.2907 1.4278-2.9477 3.5729-3.637 4.7448-0.68936 1.172-3.3538 3.8136-4.4452 5.8871-1.0915 2.0734-2.3186 4.2039-2.7278 4.7448-3.0453 4.0257-3.8286 11.642-1.6164 15.992 0.8416 1.6548 2.9733 2.803 4.3442 4.1297 2.87 1.5799 12.882 1.3584 16.67 1.1422 6.0626-0.36399 12.665 2.3158 20.711 10.983 1.5307 1.6491 4.3713 3.7944 6.3648 4.8327 3.6143 1.8823 3.6768 1.9331 16.468 1.9331h12.831l5.0514 2.1967c3.2045 1.371 5.7044 2.9437 6.7689 4.3054 3.2856 4.2032 10.129 10.087 13.437 11.598 3.1981 1.4615 4.0761 1.592 19.903 1.6695 22.756 0.11134 23.997 0.33865 33.036 7.8201 8.898 7.3645 11.542 8.3992 20.004 7.8201 3.5276-0.24142 6.9201-0.66635 7.5771-0.96649 3.0067-1.3735 15.135-3.4427 20.004-3.4268 7.1521 0.023361 10.072 1.1798 14.245 5.7992 1.88 2.0812 5.2918 4.996 7.4761 6.4143 3.7877 2.4594 4.1833 2.5275 9.5977 2.5481 6.238 0.023804 14.258-1.0893 17.276-2.4602 3.8694-1.7576 8.0649-2.9632 12.123-3.4268 7.7188-0.88164 9.5697-0.3445 16.973 4.6569 2.4632 1.6641 6.9688 4.0632 10.103 5.3598 5.453 2.2562 6.0057 2.3415 11.416 1.9331 5.8544-0.44192 14.062-3.3407 20.61-7.2051 4.683-2.7639 7.8438-3.264 10.81-1.6695 1.376 0.73964 1.0692 0.85129 2.5257 1.8452 1.0924 0.93097 6.4215 4.4804 10.002 5.5356 5.4826 1.6159 8.8024 1.8077 13.235 0.70294 4.1569-1.0362 5.656-1.786 16.67-8.0837 8.6554-4.9493 10.096-5.4287 16.266-5.4477 4.8675-0.014877 16.999 2.5494 20.004 3.5147 0.65704 0.3001 4.0495 0.72513 7.5771 0.96649 8.4614 0.57912 11.106-0.45566 20.004-7.8201 9.0394-7.4815 10.281-7.7967 33.036-7.908 15.837-0.077438 16.695-0.11581 19.903-1.5816 3.5006-1.5997 9.2376-6.5209 12.628-10.808 4.3327-5.4773 12.226-7.5051 27.682-7.205 9.6679 0.1877 9.8496 0.14084 13.841-1.8452 2.2138-1.1015 5.2233-3.3439 6.7689-5.0084 4.6475-5.0052 8.6995-8.2975 9.7997-9.0502 3.5731-1.9776 5.6544-1.7287 10.608-1.5816 6.8706 0.20401 14.382-0.39056 18.084-2.1967 1.631-1.3266 1.165-3.9053 2.0065-5.56 1.2263-2.4109 1.2275-1.7418 0.90576-5.2475-0.42468-4.6275-3.8467-12.801-6.8804-18.025-5.8531-10.078-15.004-22.282-16.569-23.872-2.4536 1.5992-1.8346 0.44634-1.8361 0.44541-0.089294 1.7847 4.1197 1.6537 3.8848 3.4054-0.45972 3.429-3.5884 6.7966-4.1632 8.1624-0.36575 1.0852-0.36691 5.3464-5.1314 8.005-2.5309 1.1727-7.4188 1.1734-12.73 0-2.7073-0.59823-16.28-5.9367-19.195-7.7322-2.9156-1.7956-29.982-15.262-38.088-18.276-1.9276-0.61356-11.108-5.333-18.286-0.08786-1.8816 1.734-3.2959 1.5858-4.3583 16.422-0.7858 10.974 0.11371 10.677-4.3301 16.352-4.1236 3.3422-14.363 5.5855-21.418 2.3724-2.4306-1.1069-19.715-10.781-22.63-12.389-2.9156-1.6084-12.214-11.562-14.119-12.502-17.627-10.475-26.808-12.441-36.092-13.613-6.719-1.8655-31.699 1.568-44.146 16.228-4.9078 4.6596-8.9814 8.5482-15.461 10.914-10.005 3.6527-18.553 5.4938-24.752 0.73048-6.7001-5.1326-10.786-10.998-14.318-16.607-8.2122-13.043-12.283-14.34-25.588-19.155-12.141-4.6266-25.724-1.9444-31.723-0.2636-3.8209 1.0707-10.544 3.7439-15.053 5.8871-22.955 10.91-26.893 12.579-32.329 14.146-3.704 1.0683-12.05 2.7772-17.175 0-5.4315-4.2483-3.2976-12.412 0.94791-23.815 2.4447-6.5661-0.98943-6.995-4.9891-9.1351-1.8337-0.98111-4.5596-1.3805-7.8802-1.2301z" fill="#c98134"/>
  <path d="m-183.35 126.54c-3.1868-0.051224-6.5364 0.099548-8.8905 0.61506-4.2311 0.92667-1.3137 7.1144-0.20206 8.6988 1.0077 1.4939 2.7257 4.2547 4.3442 7.1172s4.3788 7.4002 6.0617 10.105c1.6829 2.7044 4.6286 8.1499 6.5668 12.477 1.9383 4.3272 3.7767 8.5048 4.1422 9.226 0.36552 0.72118 0.29518 2.0616 1.8185 4.2176 0.60353 1.6227 1.3843 3.6676 1.8185 4.569 0.4342 0.90152 2.3515 5.4788 4.2432 10.105 1.8916 4.626 3.8725 9.1414 4.4452 10.105 0.57269 0.96333 1.095 2.0998 1.1113 2.4603 0.016281 0.36066 0.88708 2.2343 1.9195 4.2176 6.0414 11.605 9.5342 20.773 17.983 50.26 2.8661 10.003 5.8905 24.381 7.173 32.862 0.24535 1.6228 1.0446 7.1504 1.4144 9.3139 0.36981 2.1635 1.4683 7.4562 1.7175 11.423 0.24919 3.9666 1.026 13.076 2.0206 20.649 0.99454 7.5725 1.7906 17.792 2.2226 23.021 0.93131 11.27 4.1113 15.421 4.8494 17.134 1.818 4.2191 3.4644 8.7175 5.4555 10.105 0.90372 0.62955 2.7367 2.4216 4.1422 3.954 1.4055 1.5325 8.6099 6.5756 16.164 10.632 3.0905 1.6594 10.319 6.4303 17.579 9.4896 0.43367 7.63e-4 4.9332 1.8208 10.608 3.6026 7.7661 3.2738 10.36 2.9144 17.983 4.8326 2.8943 0.58462 8.4339 2.4282 10.507 2.8995 2.073 0.47147 5.132 1.3745 8.8905 2.4603 5.2634 1.0858 8.0784 1.6492 13.235 3.4268 5.6402 1.1336 10.458 2.9134 12.426 3.0753 1.9686 0.16199 5.472 0.82458 7.8802 1.4937 2.4082 0.66916 7.8196 1.7601 11.113 2.0209 3.2935 0.77283 8.0804 1.4957 9.4966 1.6695 1.4162 0.17371 4.5843 0.58597 7.072 0.96646 5.9017 0.90302 24.332 2.5703 34.046 3.0754 6.4358 0.3346 21.153 1.1596 52.636 1.4937 11.103 0.11795 21.342 0.9053 26.57 0.43939 4.8811-0.43497 9.5836-0.70706 10.507-0.61508 0.92343 0.09201 2.4823-0.074158 3.435-0.35147 1.0448-0.30414 20.561-2.3863 22.529-2.5481 1.9686-0.16196 28.947-6.719 29.601-7.205 0.65457-0.48596 12.563-4.0723 15.457-4.657 9.4959-1.9181 9.6757-3.7974 18.69-5.6234 4.2266-1.7818 8.0527-3.2505 8.4863-3.2511 0.43368-7.02e-4 3.3753-1.416 6.4658-3.0754 7.5546-4.0563 27.994-15.865 29.399-17.398 1.4055-1.5324 3.2383-3.3244 4.1421-3.954 1.9912-1.3872 5.4561-5.8855 7.274-10.105 0.73801-1.7128 3.3119-6.9182 4.2432-18.188 0.43207-5.2286 1.5312-15.712 2.5257-23.285 0.99457-7.5725 2.0744-17.034 2.3236-21 0.24921-3.9665 0.74152-8.9955 1.1113-11.159 0.36975-2.1635 0.86591-5.2309 1.1113-6.8536 0.29828-1.9722 1.154-5.2224 1.6164-7.7322-6.2441 5.296-12.176 10.956-18.589 15.992-59.716 50.073-150.9 71.962-229.44 44.373-95.849-31.62-144.17-115.73-174.78-195.68-0.22398-0.23633-0.47446-0.35464-0.7072-0.61502-7.0578-7.8957-9.971-10.273-13.841-11.598-7.0662-2.4197-9.9373-2.8421-20.61-2.5481-8.1513 0.22461-10.915 0.15828-12.831-0.61507-1.3392-0.54045-4.9872-3.5603-8.1833-6.6779-6.9161-6.746-8.2886-7.6926-12.426-8.9624-1.8712-0.57412-4.8954-0.8274-8.0823-0.87866z" fill="#d1a07f"/>
  <path d="m97.624-61.156c-19.152-0.097095-38.431 0.56904-47.295 2.0209-2.0032 0.32808-32.218 4.7428-38.465 5.7113-16.805 2.6051-27.98 5.0784-47.397 10.72-29.366 8.5321-46.319 15.771-66.274 28.205-8.444 5.2616-29.914 23.063-36.334 30.138-2.4542 2.7044-13.565 15.286-14.919 16.87-1.3546 1.5839-4.7016 5.4664-7.4089 8.6109-7.3382 8.5231-10.711 18.391-12.11 23.598-1.0439 7.3892-1.8809 9.9206-2.3014 18.929 0.048187 6.0178 3.4811 9.8233 10.657 11.862 3.4018 0.96653 8.5607-0.20226 14.006-3.251 2.0825-1.1661 7.4627-3.9739 11.976-6.2385 7.8477-3.9377 12.262-6.8354 18.979-12.214 1.6834-1.3477 4.9176-3.5221 7.1044-4.8326 3.0823-1.8472 6.3854-4.4963 10.555-7.205 15.485-10.06 37.322-15.874 44.656-11.95 3.9996 2.1401 4.0686 2.8356 1.6239 9.4017-4.2456 11.403-3.0827 19.312 2.3488 23.561 5.1243 2.7772 13.535 1.0557 17.239-0.012535 5.4358-1.5678 9.3192-3.2367 32.274-14.146 4.5093-2.1431 11.301-4.8164 15.122-5.8871 5.9984-1.6808 19.524-4.363 31.665 0.26361 13.305 4.8144 14.928 6.1121 23.14 19.155 3.5316 5.6089 10.046 11.474 16.746 16.607 6.1991 4.7632 14.759 5.3221 24.764 1.6695 6.4795-2.3656 10.316-4.6543 15.224-9.3139 12.446-14.66 37.73-20.514 44.45-18.649 9.2839 1.1722 16.275 3.6925 33.902 14.168 1.9051 0.93937 13.323 8.7598 16.239 10.368 2.9155 1.6084 20.202 11.282 22.633 12.389 7.0554 3.213 17.291 0.9697 21.415-2.3724 4.4438-5.6758 4.7962-4.578 5.582-15.552 1.0624-14.836 1.2646-15.488 3.1462-17.222 7.1776-5.2451 16.331-0.55077 18.259 0.062782 8.1055 3.0139 35.154 16.506 38.069 18.301 2.9156 1.7956 16.576 7.134 19.283 7.7322 5.3106 1.1734 10.156 1.1727 12.686 0 4.7644-2.6586 6.6371-6.1198 7.0029-7.205 0.57486-1.3659 1.8746-5.5334 2.3344-8.9624 1.4794-11.035 0.002045-23.32-3.5523-29.347-0.57419-0.97375-9.8392-17.192-14.615-22.054-1.9641-1.9997-15.315-15.795-21.212-19.594-3.1021-1.9989-9.4882-6.8457-14.107-10.72-4.6191-3.874-9.9316-8.0285-11.874-9.226-1.9428-1.1974-7.3721-4.5695-12.078-7.4686-11.683-7.1984-14.09-8.4338-18.472-10.105-2.0826-0.79415-7.8914-3.1754-12.89-5.272-18.191-7.6307-29.913-12.064-36.638-13.707-1.8742-0.45798-5.1234-1.3409-7.2059-2.0209-5.5659-1.8176-22.898-5.6614-27.707-6.1507-2.2908-0.23301-41.137-6.6968-43.844-7.205-8.1958-1.5384-27.229-2.3632-46.382-2.4603z" fill="#ededff"/>
  <g fill="#bd772c">
   <path d="m365.4 78.731c-1.0218 0.66604-1.3937 0.70963-1.6164 0.70293 0.46823 1.4048 3.8542 1.5429 3.637 3.1632-0.45969 3.429-3.5674 6.8057-4.1422 8.1716-0.36581 1.0853-0.38803 5.3373-5.1524 7.9959-1.2655 0.58639-3.1523 0.87861-5.3545 0.87865-0.029633 0-0.071259 1.6e-4 -0.10107 0-11.895 13.678-40.68 10.04-59.102 11.598-29.771 5.6421-48.814 32.97-81.025 32.774-35.491 2.298-71.411-1.8886-105.17-11.51-44.25-12.512-91.126-2.7958-133.56 10.28-16.99 4.6488-30.57 15.898-48.089 20.034-1.7773 0.47543-3.4891 1.1514-5.2535 1.6694 16.723 0.18901 20.481 0.84456 28.591 7.5565 8.898 7.3645 11.542 8.3992 20.004 7.8201 3.5276-0.24136 6.9201-0.66635 7.5771-0.96649 3.0067-1.3735 15.135-3.4427 20.004-3.4268 7.152 0.023422 10.072 1.1798 14.245 5.7992 1.88 2.0812 5.2918 4.996 7.4761 6.4142 3.7877 2.4594 4.1834 2.5275 9.5977 2.5481 6.238 0.023804 14.258-1.0893 17.276-2.4603 3.8694-1.7575 8.0649-2.9631 12.123-3.4268 7.7188-0.88155 9.5697-0.3445 16.973 4.6569 2.4632 1.6642 6.9688 4.0632 10.103 5.3598 5.453 2.2563 6.0058 2.3415 11.416 1.9331 5.8544-0.44188 14.062-3.3406 20.61-7.205 4.6829-2.7638 7.8437-3.2639 10.81-1.6695 1.3759 0.73968 1.0692 0.8513 2.5257 1.8452 1.0924 0.93098 6.4215 4.4804 10.002 5.5356 5.4825 1.6159 8.8023 1.8078 13.235 0.70294 4.1569-1.0361 5.656-1.7859 16.67-8.0838 8.6554-4.9492 10.096-5.4287 16.266-5.4477 4.8675-0.014893 16.999 2.5494 20.004 3.5147 0.65704 0.30014 4.0495 0.72513 7.5771 0.96652 8.4614 0.57912 11.106-0.45572 20.004-7.8201 9.0395-7.4814 10.28-7.7967 33.036-7.908 15.837-0.077393 16.695-0.11581 19.902-1.5816 3.5006-1.5996 9.2377-6.5209 12.628-10.808 4.3328-5.4773 12.226-7.5051 27.682-7.2051 9.6679 0.18773 9.8496 0.1409 13.841-1.8452 2.2137-1.1015 5.2232-3.3438 6.7688-5.0084 4.6476-5.0052 8.6995-8.2975 9.7998-9.0503 3.5731-1.9776 5.6542-1.7286 10.608-1.5816 6.8706 0.20406 14.382-0.3905 18.084-2.1966 1.631-1.3267 1.1789-3.8808 2.0205-5.5356 1.2263-2.4108 1.231-1.7662 0.90924-5.272-0.42462-4.6275-3.8362-12.789-6.8699-18.013-5.8531-10.078-15.004-22.31-16.569-23.9zm-1.6164 0.7029c-0.037994-0.11389-0.30978-0.12973-0.30313-0.26359 8.85e-4 5.72e-4 -0.008942 0.25429 0.30313 0.26359z"/>
   <path d="m-171.65 69.864c-0.14911 0.092552-2.9805 1.4476-3.0308 1.4937-4.8616 4.4568-15.682 17.288-16.973 18.716-1.2907 1.4278-2.9477 3.5729-3.637 4.7448-0.68938 1.1719-3.3538 3.8136-4.4452 5.887-1.0915 2.0735-2.3186 4.2039-2.7278 4.7448-3.0453 4.0256-3.8286 11.642-1.6165 15.992 0.84163 1.6548 2.9733 2.8031 4.3442 4.1297 2.87 1.5799 12.882 1.3583 16.67 1.1422 6.0626-0.36399 12.665 2.3158 20.711 10.983 1.5307 1.6491 4.3713 3.7945 6.3648 4.8327 3.6143 1.8822 3.6768 1.933 16.468 1.933h12.831l5.0514 2.1967c3.2045 1.371 5.7045 2.9437 6.7689 4.3055 3.2856 4.2032 10.129 10.087 13.437 11.598 1.7754 0.81134 3.5703 1.1084 6.8699 1.318-6.7922-11.402-13.809-22.58-26.975-29.435-20.275-8.0567-34.475-24.025-43.442-41.824-5.1244-2.1927-8.1424-5.4371-8.1833-10.544 0.27066-5.7979 0.9556-8.7596 1.5154-12.214z"/>
  </g>
  <path d="m-172.36 67.041c-0.19144 0.93092-2.3247 3.5727-4.8494 5.887-4.8616 4.4568-15.682 17.288-16.973 18.716-1.2907 1.4277-2.9477 3.5728-3.637 4.7448-0.68935 1.1719-3.3538 3.8136-4.4452 5.8871-1.0915 2.0734-2.3186 4.2039-2.7278 4.7448-3.0453 4.0256-3.8286 11.642-1.6165 15.992 0.84161 1.6548 2.9733 2.803 4.3442 4.1297 2.87 1.5799 6.6675 6.3236 7.7792 7.908 1.0077 1.4939 2.7257 4.2546 4.3442 7.1172 1.6186 2.8625 4.3788 7.4002 6.0617 10.105 1.6829 2.7044 4.6286 8.4135 6.5668 12.741 1.9383 4.3271 3.7767 8.5047 4.1422 9.226 0.36552 0.72116 1.215 2.5949 1.8185 4.2176 0.60353 1.6227 1.3844 3.6675 1.8185 4.5691 0.43422 0.9014 2.3516 5.4787 4.2432 10.105 1.8916 4.6259 3.8725 9.1414 4.4452 10.105 0.57271 0.96329 1.0951 2.0997 1.1113 2.4603 0.016266 0.36064 0.88708 2.2343 1.9195 4.2176 6.0413 11.605 9.8373 22.354 18.286 51.841 2.8661 10.003 6.1936 24.908 7.4761 33.389 0.24536 1.6226 0.74152 4.7779 1.1113 6.9415 0.36983 2.1634 0.86209 7.1925 1.1113 11.159 0.24919 3.9666 1.3291 13.34 2.3236 20.912 0.99455 7.5724 2.0937 18.056 2.5257 23.285 0.9313 11.27 3.5052 16.476 4.2432 18.188 1.818 4.2192 4.6767 8.454 6.6679 9.8411 0.90373 0.62955 2.7367 2.4216 4.1422 3.954 1.4055 1.5323 8.6099 6.5756 16.164 10.632 3.0905 1.6593 10.319 6.4303 17.579 9.4896 0.43366 7.32e-4 4.9332 1.8208 10.608 3.6026 7.7661 3.2738 11.067 3.7052 18.69 5.6235 2.8943 0.58456 8.4339 2.4282 10.507 2.8996 2.073 0.47134 5.1321 1.3744 8.8905 2.4602 5.2634 1.0858 8.0783 1.6492 13.235 3.4268 5.6402 1.1335 10.458 2.9134 12.426 3.0753 1.9686 0.16196 5.472 0.82465 7.8802 1.4937 2.4082 0.66916 7.8196 1.7601 11.113 2.0209 3.2935 0.77268 8.0805 1.4958 9.4967 1.6695 1.4162 0.17371 4.5843 0.58594 7.072 0.96652 5.9017 0.90302 24.332 2.5703 34.046 3.0754 6.4358 0.33447 21.153 1.1596 52.636 1.4937 11.103 0.11786 22.554-0.14917 27.783-0.61505 4.8811-0.435 9.5836-0.70709 10.507-0.61502 0.92343 0.091949 2.4822-0.074158 3.435-0.3515 1.0448-0.3042 20.561-2.3862 22.529-2.5482 1.9686-0.1619 28.947-6.7191 29.601-7.205 0.65457-0.48608 12.563-4.0723 15.457-4.657 9.4958-1.9181 9.6757-3.7973 18.69-5.6234 4.2266-1.7818 8.0527-3.2504 8.4863-3.2511 0.43368-7.02e-4 3.3753-1.4159 6.4658-3.0753 7.5546-4.0564 27.994-15.865 29.399-17.398 1.4055-1.5324 3.2385-3.3244 4.1422-3.954 1.9912-1.3872 4.8498-5.622 6.6679-9.841 0.73804-1.7129 3.3119-6.9182 4.2432-18.188 0.43204-5.2286 1.5312-15.712 2.5257-23.284 0.99457-7.5725 2.0744-17.034 2.3236-21 0.24924-3.9665 0.74146-8.9955 1.1113-11.159 0.36981-2.1636 0.86591-5.231 1.1114-6.8536 1.2825-8.481 4.61-23.474 7.476-33.477 8.4488-29.487 12.245-40.148 18.286-51.753 1.0325-1.9832 1.9033-3.9448 1.9195-4.3054 0.016296-0.36061 0.5386-1.4092 1.1113-2.3724 0.57272-0.96329 2.5536-5.5667 4.4452-10.193 1.8916-4.6259 3.8089-9.1154 4.2432-10.017 0.43417-0.90155 1.316-2.9464 1.9196-4.5691 0.60348-1.6226 1.352-3.5842 1.7174-4.3055 0.36554-0.72118 2.204-4.811 4.1422-9.1381 1.9383-4.3272 4.985-10.124 6.6678-12.828 1.6829-2.7045 4.3421-7.2421 5.9607-10.105 1.6186-2.8626 3.7407-6.0757 4.7483-7.1172 1.0077-1.0415 1.8185-2.513 1.8185-3.339 0-1.4421 2.9656-3.378 6.6678-5.1841 1.631-1.3268 2.3913-1.772 3.2329-3.4268 1.2263-2.4109 1.5341-3.875 1.2124-7.3808-0.42465-4.6276-2.9269-11.735-5.9607-16.958-5.8531-10.078-14.398-23.54-15.962-25.13-0.63071-0.64112-1.3822 2.0799-0.40408 3.7782 0.56821 0.98658 3.5545 5.7078 6.5668 10.456 6.7136 10.583 7.4505 12.276 9.3957 16.519 0.52786 1.1243 3.5249 10.245 3.536 13.532 0.006592 1.9618-0.56335 3.2576-2.2226 5.0084-3.1192 3.2911-5.8717 4.1777-10.103 3.251-4.7082-1.0311-13.23-0.97267-16.973 0.17572-4.1379 1.2697-5.4093 2.2164-12.325 8.9624-3.1961 3.1175-6.9451 6.1374-8.2843 6.6779-1.916 0.77333-4.6793 0.92748-12.831 0.70293-10.672-0.2941-13.544 0.040451-20.61 2.4602-3.87 1.3252-6.783 3.7905-13.841 11.686-4.3929 4.9145-6.6639 5.4491-24.348 5.4477-14.505-0.001129-24.702 0.99135-26.368 2.021-2.4222 0.82382-4.586 2.637-7.4761 5.0962-2.89 2.4592-6.6937 5.3824-8.4864 6.5021-3.1094 1.9421-3.5307 2.0962-9.1936 1.8452-3.3025-0.14638-9.9195-1.2177-14.952-2.3724-10.368-2.3789-17.872-2.7454-22.731-1.0544-1.6668 0.58003-1.7154 0.7146-3.536 1.6695-3.1731 1.8596-5.0135 2.7689-9.3956 5.4477-8.7585 5.3539-11.716 6.1176-19.498 5.272-3.4664-0.37668-4.9139-0.95711-9.1936-3.954-2.7874-1.9519-6.1548-4.0641-7.5771-4.6569-2.4178-1.0079-2.8929-1.0069-6.4658 0.087875-2.1019 0.64397-6.6798 2.6861-10.204 4.4812-3.5242 1.795-7.6877 3.6361-9.2946 4.1298-1.6069 0.49356-4.5485 0.90366-6.4658 0.87869-4.6659-0.061035-13.896-3.6428-19.296-7.4686-5.6928-4.0328-8.8168-5.0754-13.942-4.7448-6.0336 0.38914-12.615 1.6564-15.659 3.0754-1.4612 0.68108-4.5581 1.5418-6.8699 1.9331-2.3119 0.39125-5.0726 1.024-6.1627 1.318-1.0901 0.29401-3.9124 0.23282-6.2637-0.087845-4.8632-0.6633-7.803-2.5805-12.73-8.3474-6.0892-7.128-14.548-8.3707-31.117-4.569-5.0326 1.1547-11.65 2.226-14.952 2.3724-5.6628 0.25099-6.0842 0.18474-9.1936-1.7573-1.7927-1.1197-5.5963-4.0429-8.4864-6.5021-2.89-2.4593-6.2012-4.8127-7.3751-5.1842-4.6833-1.4821-11.863-2.0221-26.368-2.0209-17.684 0.001358-20.056-0.53328-24.449-5.4477-7.0578-7.8957-9.971-10.273-13.841-11.598-7.0662-2.4198-9.9374-2.8422-20.61-2.5481-8.1513 0.22456-10.914 0.15825-12.831-0.61507-1.3392-0.54051-4.9872-3.5604-8.1833-6.6779-6.9161-6.7461-8.2885-7.6926-12.426-8.9624-3.7423-1.1484-12.264-1.2947-16.973-0.2636-4.2312 0.9266-6.9836 0.040031-10.103-3.2511-1.6593-1.7507-2.2293-3.0466-2.2226-5.0084 0.012024-3.5488 1.6026-8.4572 4.1422-12.828 1.1522-1.9833 2.3292-4.0282 2.6267-4.5691 0.29756-0.54094 4.4862-5.1084 5.3545-5.9749 0.86827-0.86652 2.8322-3.4898 4.4452-5.887 1.613-2.3973 3.8926-5.039 5.0514-5.887 1.1588-0.84807 5.9515-6.6814 8.6884-9.4017l2.0206-2.0209s0.38283-4.6056 0.30307-4.2176zm-13.235 61.243c6.0626-0.36401 12.665 2.3158 20.711 10.983 1.5307 1.6491 4.3713 3.7945 6.3648 4.8327 3.6143 1.8822 3.6768 1.933 16.468 1.933h12.831l5.0514 2.1967c3.2045 1.371 5.7044 2.9437 6.7689 4.3054 3.2856 4.2032 10.129 10.087 13.437 11.598 3.1981 1.4615 4.0762 1.5921 19.903 1.6695 22.756 0.11127 23.997 0.33856 33.036 7.8201 8.8979 7.3645 11.542 8.3992 20.004 7.8201 3.5276-0.24142 6.9201-0.66643 7.5771-0.96655 3.0067-1.3735 15.135-3.4427 20.004-3.4268 7.152 0.023361 10.072 1.1798 14.245 5.7992 1.8799 2.0811 5.2919 4.996 7.4761 6.4142 3.7877 2.4594 4.1834 2.5274 9.5977 2.5481 6.238 0.023727 14.258-1.0894 17.276-2.4603 3.8694-1.7576 8.0649-2.9632 12.123-3.4268 7.7188-0.88168 9.5697-0.34457 16.973 4.6569 2.4632 1.664 6.9688 4.0631 10.103 5.3598 5.453 2.2562 6.0058 2.3415 11.416 1.9331 5.8544-0.44196 14.062-3.3406 20.61-7.2051 4.6829-2.7639 7.8437-3.2639 10.81-1.6694 1.3759 0.73959 1.0692 0.8513 2.5257 1.8452 1.0924 0.93094 6.4214 4.4804 10.002 5.5356 5.4825 1.6159 8.8023 1.8077 13.235 0.70296 4.1569-1.0362 5.656-1.786 16.67-8.0838 8.6554-4.9493 10.096-5.4288 16.266-5.4477 4.8675-0.014969 16.999 2.5494 20.004 3.5146 0.657 0.30014 4.0495 0.72513 7.5771 0.96658 8.4614 0.57904 11.106-0.45576 20.004-7.8201 9.0394-7.4815 10.281-7.7968 33.036-7.908 15.837-0.077484 16.695-0.11583 19.903-1.5816 3.5005-1.5997 9.2377-6.521 12.628-10.808 4.3327-5.4773 12.226-7.5051 27.682-7.205 9.6679 0.18764 9.8496 0.14084 13.841-1.8452 2.2138-1.1016 5.2234-3.3439 6.7689-5.0084 4.6475-5.0053 8.6994-8.2975 9.7997-9.0503 3.5731-1.9776 5.6543-1.7287 10.608-1.5816 6.8704 0.20396 8.4666 1.3336 7.9812 2.9874-0.40076 1.2109-3.6487 6.5699-7.6781 12.126-3.6252 4.9982-10.409 17.812-13.336 25.218-1.1402 2.8847-2.4899 6.1232-3.0308 7.2051-0.54105 1.0817-2.7033 6.194-4.8494 11.423-3.5666 8.6897-6.9584 16.263-9.4966 21.352-4.4779 8.9762-7.1978 15.72-10.911 26.711-3.9929 11.819-9.9238 33.197-12.831 46.306-3.0478 13.744-2.9115 12.869-3.738 21.176-2.4624 24.751-3.0992 30.701-3.7381 34.268-0.39151 2.1853-0.97168 6.1701-1.2124 8.8745-1.5417 17.328-5.5777 29.755-8.4863 33.301-3.726 4.5426-13.233 11.046-19.498 15.113-0.63165-2.6866 2.9781-35.164 3.7381-40.594 1.087-5.3308 4.0084-24.476 5.3545-35.147 0.39578-3.1372 0.96298-7.1177 1.3134-8.8745 0.35049-1.7568 1.0623-5.5871 1.5154-8.523 0.45312-2.9361 1.2944-7.9481 1.9196-11.071 0.62518-3.1231 1.4484-7.4267 1.8185-9.5774 0.37021-2.1507 1.1912-6.3006 1.8185-9.226 1.1482-5.354 1.4997-6.7171 3.334-14.498 0.55106-2.3374 1.5873-7.1204 2.3237-10.632 2.7262-13.001 8.7497-33.763 12.628-43.406 1.1636-2.893 3.2502-8.2811 4.6473-11.95 2.7867-7.3182 3.6314-9.2687 8.4864-20.649 1.8074-4.2366 3.4875-8.4746 3.738-9.4017 0.25052-0.927 3.6771-7.7919 4.4453-10.368 0.13287-0.44569-1.1811-4.0331-5.7586 6.59-4.7656 11.06-15.495 37.457-17.478 42.879-0.75568 2.0666-2.3421 6.0916-3.435 8.9624-1.0929 2.8709-2.636 7.6028-3.435 10.544-3.4692 12.771-5.6446 21.191-6.2637 24.163-1.5155 7.2763-2.9445 14.259-4.5463 21.615-0.93414 4.2897-2.0736 10.002-2.5258 12.741-0.452 2.7385-1.305 7.442-1.9195 10.368-0.97632 4.6492-2.2993 11.748-4.6473 26.272-1.0463 6.4713-2.0323 13.427-3.1319 21.703-0.57288 4.3118-2.1923 12.32-2.6267 15.201-0.43451 2.881-1.6225 12.631-2.1216 14.234-0.87814 7.999-0.9956 3.7143-1.7175 13.092-0.71841 9.3332-1.496 17.911-1.7175 18.276-0.001099 0.001801 0.001007 0.086487 0 0.08786-0.30292 0.17703-1.7281 1.1064-1.8185 1.1423-1.1401 0.45132-4.4234 2.2185-7.274 3.8661s-6.5742 3.3581-8.2844 3.8662c-1.7101 0.50803-5.0575 1.6966-7.4761 2.636-2.7947 1.0854-9.5704 2.9041-9.6987 2.7238-0.91925-1.291 1.1407-35.156 1.6165-40.594 0.79778-5.2396 2.6669-23.991 3.435-34.444 0.22577-3.0729 0.55312-7.0603 0.80818-8.7867 0.25511-1.7264 0.71635-5.4678 1.0103-8.3473 0.29399-2.8796 0.95874-7.7383 1.4144-10.808 0.45578-3.0692 1.0599-7.2907 1.3133-9.4018 0.25359-2.111 0.84485-6.1735 1.3134-9.0501 0.85753-5.265 1.013-6.6637 2.4247-14.322 0.42415-2.3007 1.2727-7.0038 1.8185-10.456 2.0206-12.782 6.9516-33.318 10.305-42.879 1.006-2.8682 2.7428-8.14 3.9401-11.774 2.388-7.249 3.1406-9.2659 7.3751-20.561 1.5764-4.205 3.0327-8.4 3.2329-9.3138 0.20004-0.91399 3.312-7.6498 3.9401-10.193 0.1087-0.43984-1.4572-3.9556-5.4556 6.59-4.1625 10.979-13.467 37.16-15.154 42.527-0.64313 2.0457-1.9934 6.1187-2.9298 8.9623-0.93649 2.8437-2.1897 7.4687-2.8288 10.368-2.7752 12.59-4.4925 20.89-4.9504 23.812-1.1206 7.1534-2.2324 14.029-3.435 21.264-0.70125 4.2189-1.5149 9.8778-1.8185 12.565-0.30356 2.6871-0.95872 7.2276-1.4144 10.105-0.72404 4.571-1.5713 11.583-3.1319 25.833-0.69537 6.349-1.2683 13.155-1.9196 21.264-0.33922 4.2248-1.5401 12.112-1.8185 14.937-0.27835 2.8252-1.0025 12.388-1.4144 13.971-0.44493 7.8295-0.69478 3.5743-0.90921 12.741-0.20926 8.9429-0.60344 16.905-0.80826 17.573-0.038742 0.010193-0.1658 0.078278-0.20206 0.08783-2.3972 0.62665-8.305 2.3687-13.235 3.7783-4.9297 1.4095-9.4381 2.5481-10.002 2.5481-0.59703 0-4.4452 0.96652-4.4452 0.96652l-7.173 1.6695c-0.94418 0.22931-2.1078 0.59366-3.2329 0.87869-1.0012-1.6112-1.4758-34.002-1.4144-39.276 0.39801-5.1347 0.73459-23.457 0.70714-33.653-0.008087-2.9975 0.17969-6.8316 0.30307-8.523 0.12344-1.6915 0.22847-5.3581 0.30316-8.1716 0.0746-2.8136 0.28343-7.6247 0.5051-10.632 0.22159-3.0071 0.5135-7.161 0.60614-9.226 0.092712-2.0649 0.35716-6.0536 0.60619-8.8745 0.45581-5.1629 0.58745-6.4513 1.4144-13.971 0.24841-2.2588 0.72786-6.8961 1.0103-10.28 1.0454-12.53 4.3512-32.698 6.971-42.176 0.78595-2.8436 2.2133-8.1757 3.1319-11.774 1.8322-7.1777 2.3914-9.0836 5.7586-20.297 1.2536-4.1747 2.3955-8.3269 2.5257-9.226 0.13022-0.89906 2.6983-7.6867 3.1319-10.192 0.075012-0.43336-1.6609-3.7065-4.8494 6.7657-3.3194 10.902-10.746 36.866-12.022 42.176-0.48637 2.0238-1.4032 5.9709-2.1216 8.7867-0.71846 2.8158-1.7041 7.4275-2.1216 10.28-1.8128 12.388-2.897 20.508-3.1319 23.372-0.57492 7.0119-1.1681 13.729-1.8185 20.824-0.37927 4.1378-0.70938 9.674-0.80824 12.301-0.098877 2.6272-0.36996 7.1085-0.60617 9.929-0.37528 4.4811-0.73734 11.376-1.2123 25.306-0.21168 6.2063-0.37021 12.824-0.40416 20.736-0.017639 4.1228-0.54298 11.826-0.60614 14.586-0.063156 2.7598-0.11336 12.146-0.40411 13.707 0.1506 7.6299-0.38109 3.5624 0.10104 12.477 0.44101 8.1534 0.60269 14.524 0.50513 15.992-2.2995 0.60031-4.7065 1.215-6.3648 1.6694-4.0074 1.0981-8.8231 1.837-12.831 2.0209-3.5242 0.16159-10.285 0.79675-15.053 1.318-1.3526 0.14789-3.4067 0.13248-5.1524 0.26358-1.048-1.531-4.0272-35.439-4.3442-40.594 0.006241-5.037-0.96876-22.906-1.7175-32.862-0.22011-2.9269-0.39899-6.6886-0.4041-8.3473-0.005142-1.6588-0.071976-5.244-0.20206-7.9958-0.13014-2.7519-0.29608-7.4191-0.30308-10.368-0.00705-2.9493-0.040741-7.0285-0.10104-9.0503-0.060242-2.0218-0.031677-5.9299 0-8.6988 0.057968-5.0676 0.066895-6.4051 0.3031-13.795 0.070969-2.22 0.078293-6.7837 0.10103-10.105 0.084091-12.296 1.8715-32.157 3.637-41.561 0.52968-2.8213 1.4211-8.1202 2.0206-11.686 1.1959-7.113 1.6022-8.9808 3.9401-20.122 0.87038-4.1475 1.559-8.2527 1.6165-9.1381 0.057343-0.88534 1.9969-7.721 2.2226-10.192 0.039078-0.42752-1.8169-3.4652-4.0411 6.9414-2.3156 10.834-7.3726 36.567-8.1833 41.824-0.30902 2.0039-0.94562 5.9085-1.4144 8.6988-0.46889 2.7902-0.9252 7.383-1.1113 10.192-0.80827 12.2-1.298 20.21-1.3134 23.021-0.037643 6.8801-0.10011 13.507-0.20209 20.473-0.059418 4.0624 0.006729 9.4664 0.10103 12.038 0.094345 2.5712 0.12079 6.8976 0.10106 9.6653-0.031357 4.3975 0.16119 11.148 0.70718 24.778 0.24326 6.0728 0.58165 12.568 1.1113 20.297 0.27594 4.0271 0.2672 11.623 0.40411 14.322 0.13687 2.6987 0.86699 11.815 0.70721 13.356 0.6813 7.4428-0.17169 3.4467 0.90926 12.126 1.07 8.5903 1.8417 16.51 1.7175 16.958-11.051 0.67526-25.341 1.3108-29.399 1.318-5.2863 0.00943-21.583-0.25082-23.034-0.26361h-2.6268l0.1011-10.632c0.11966-6.9703 0.70978-25.873 0.60615-59.134-0.13393-42.997-0.15669-91.904-0.101-121.61 0.02092-11.178-0.14785-25.754-0.40414-32.335-0.42803-10.993-0.65702-11.95-1.9195-11.95-1.3234 0-1.2915 3.5445-1.3134 95.247-0.026688 111.77-0.39103 123.92-0.50516 129.78l-0.202 10.632-23.54-1.4938c-7.7422-0.45023-19.07-1.8373-29.197-3.1632 0.030659-2.0664 0.38255-7.4181 1.1113-15.113 0.84754-8.9484 0.04163-4.8981 0.50514-12.565-0.22652-1.5787 0.15201-11.018 0.20206-13.795 0.050079-2.7768-0.15146-10.528 0-14.674 0.29067-7.9569 0.46205-14.666 0.50515-20.912 0.096649-14.019-0.010845-20.876-0.20206-25.393-0.12036-2.8429-0.211-7.3721-0.20206-10.017 0.008968-2.6444-0.093739-8.2172-0.30307-12.389-0.35897-7.154-0.72339-13.933-1.0103-21-0.11726-2.8872-0.8181-11.038-2.1216-23.548-0.30021-2.8811-1.115-7.6032-1.7175-10.456-0.60254-2.853-1.4155-6.9127-1.8185-8.9624-1.0573-5.3776-7.3337-31.64-10.204-42.703-2.7569-10.626-4.6035-7.3796-4.5463-6.9415 0.33056 2.5326 2.6344 9.3725 2.7278 10.28 0.093325 0.90791 1.04 5.1661 2.1216 9.4017 2.9051 11.377 3.3127 13.288 4.8493 20.561 0.77039 3.6461 1.9579 9.067 2.6268 11.95 2.2293 9.6097 4.8237 29.985 5.3545 42.615 0.14345 3.4114 0.34948 8.0896 0.50512 10.368 0.51805 7.5855 0.56448 8.9418 0.80825 14.147 0.13317 2.8438 0.29516 6.7954 0.30308 8.8744 0.00787 2.0789 0.10393 6.2836 0.20206 9.3139 0.098118 3.0302 0.14183 7.8008 0.10102 10.632-0.040817 2.8311-0.053974 6.5551 0 8.2595 0.053997 1.7044 0.029964 5.5973-0.10102 8.6109-0.44565 10.25-0.79337 28.654-0.60618 33.829-0.154 5.2695-1.9617 37.203-3.0308 39.188-9.6776-1.3183-18.235-2.6417-19.296-2.8996-0.4146-0.10071-4.3557-0.81744-7.7792-1.4058-4.4533-0.58835-4.8513-1.032-8.0822-1.7573-2.6273-0.7085-6.7478-1.7873-10.911-2.8996-0.16291-0.52237 0.030239-8.5289 0.50514-17.31 0.48213-8.9147-0.049602-4.8471 0.10104-12.477-0.29079-1.5611-0.34094-10.86-0.40412-13.619-0.063181-2.7598-0.58851-10.463-0.60616-14.586-0.033986-7.913-0.1925-14.618-0.40412-20.824-0.47498-13.929-0.73605-20.736-1.1113-25.218-0.23617-2.8204-0.50733-7.3016-0.60616-9.9289-0.098884-2.6272-0.52994-8.1634-0.90927-12.301-0.6504-7.0956-1.2436-13.812-1.8185-20.824-0.23486-2.8645-1.3191-10.985-3.1319-23.372-0.4175-2.8529-1.3021-7.4646-2.0206-10.28-0.71848-2.8158-1.7363-6.8507-2.2226-8.8745-1.276-5.3097-8.6019-31.186-11.921-42.088-3.1884-10.472-4.9244-7.287-4.8494-6.8536 0.43359 2.5057 2.9006 9.2934 3.0308 10.192 0.13024 0.89912 1.2721 5.0514 2.5257 9.226 3.3672 11.214 3.9264 13.207 5.7586 20.385 0.91855 3.5985 2.3459 8.8427 3.1319 11.686 2.6198 9.4782 5.9255 29.646 6.971 42.176 0.2824 3.3843 0.76185 8.0215 1.0103 10.28 0.82702 7.5194 0.9586 8.8958 1.4144 14.059 0.24901 2.8209 0.51348 6.8097 0.60616 8.8745 0.092627 2.0649 0.38456 6.2188 0.60616 9.226 0.22163 3.0071 0.43052 7.7304 0.50514 10.544 0.074654 2.8135 0.28069 6.568 0.40412 8.2594 0.12341 1.6915 0.2101 5.5255 0.20206 8.5231-0.027409 10.196 0.30911 28.43 0.7072 33.565 0.060775 5.2298-0.62654 38.269-1.6165 40.419-0.32552-0.086945-2.0206-0.52725-2.0206-0.52725l-4.4452-0.9664c-2.8526 0-9.7194-2.0174-14.649-3.4269-4.9297-1.4096-10.938-3.0637-13.336-3.6904-0.97771-0.25562-3.7618-1.2642-5.9607-1.933-0.20889-1.0905-0.60535-8.2856-0.80822-16.958-0.21441-9.1662-0.46428-4.9989-0.90926-12.829-0.41188-1.583-1.136-11.146-1.4144-13.971-0.27835-2.8251-1.4792-10.713-1.8185-14.937-0.65121-8.1089-1.2242-14.915-1.9195-21.264-1.5606-14.25-2.4079-21.262-3.1319-25.833-0.45569-2.877-1.1108-7.4177-1.4144-10.105-0.3036-2.6871-1.1172-8.346-1.8185-12.565-1.2025-7.2346-2.3144-14.11-3.435-21.264-0.45783-2.9223-2.1753-11.222-4.9504-23.812-0.63911-2.8996-1.8923-7.5246-2.8288-10.368-0.93651-2.8436-2.2867-6.9166-2.9298-8.9623-1.6873-5.367-10.992-31.461-15.154-42.44-3.9983-10.546-5.5642-7.1177-5.4555-6.6778 0.62812 2.5427 3.74 9.3665 3.9401 10.28 0.2001 0.9139 1.6564 5.021 3.2329 9.226 4.2344 11.295 4.987 13.312 7.375 20.561 1.1972 3.6341 2.9341 8.906 3.9401 11.774 3.3533 9.5604 8.2842 30.097 10.305 42.879 0.54578 3.4523 1.3944 8.1555 1.8185 10.456 1.4118 7.6586 1.6681 9.0573 2.5257 14.322 0.46854 2.8767 1.0598 6.9392 1.3134 9.0503 0.25347 2.111 0.75662 6.3325 1.2123 9.4017 0.4557 3.0692 1.1205 7.928 1.4144 10.808 0.29396 2.8795 0.75517 6.6208 1.0103 8.3473 0.25512 1.7265 0.58244 5.7138 0.80822 8.7866 0.76808 10.453 2.6372 29.204 3.435 34.444 0.4738 5.4149 2.5058 38.854 1.6165 40.419-1.808-0.59207-3.2757-0.96545-4.6473-1.4937-2.8338-1.0914-6.0354-2.2414-7.072-2.4603-1.0365-0.2189-4.0559-1.6169-6.7689-3.1632s-6.1862-3.3499-7.6782-4.0419c-0.64023-0.29697-3.9514-2.5344-6.1627-3.954-0.31528-1.8723-0.97785-7.9057-1.6164-16.168-0.72187-9.3391-0.73832-5.0383-1.6165-13.004-0.49908-1.5963-1.7881-11.365-2.2226-14.234-0.4345-2.8691-2.0539-10.819-2.6267-15.113-1.0996-8.2416-2.0857-15.258-3.1319-21.703-2.348-14.464-3.57-21.554-4.5463-26.184-0.61448-2.9142-1.5685-7.4654-2.0206-10.193-0.45209-2.7271-1.4906-8.4686-2.4247-12.741-1.6018-7.3256-3.1318-14.281-4.6473-21.527-0.61916-2.9602-2.7946-11.269-6.2638-23.988-0.79894-2.9291-2.3421-7.685-3.435-10.544s-2.5783-6.9044-3.3339-8.9624c-1.9826-5.3995-12.813-31.69-17.579-42.703-4.5776-10.579-5.8915-6.946-5.7586-6.5021 0.76825 2.5657 4.1948 9.3572 4.4452 10.28 0.25049 0.92329 1.9305 5.0948 3.738 9.3139 4.855 11.333 5.6996 13.273 8.4864 20.561 1.3971 3.6537 3.4836 9.0689 4.6473 11.95 3.8788 9.6028 9.9023 30.283 12.628 43.23 0.73637 3.4969 1.8737 8.2163 2.4247 10.544 1.8343 7.7488 2.0848 9.166 3.2329 14.498 0.62731 2.9133 1.4484 7.0841 1.8185 9.226 0.37014 2.1418 1.1933 6.3794 1.8185 9.4896 0.62518 3.1101 1.5675 8.0594 2.0206 10.983 0.4531 2.9239 1.064 6.7735 1.4144 8.523 0.35043 1.7495 0.91763 5.7503 1.3134 8.8745 1.3461 10.627 4.2675 29.662 5.3545 34.971 0.72191 5.1375 3.8304 33.098 3.637 38.398-6.2811-4.3017-13.033-9.3451-15.962-12.916-2.8685-3.4972-6.9446-15.974-8.4864-33.301-0.24062-2.7044-0.82086-6.6892-1.2123-8.8745-0.63894-3.5666-1.2756-9.5168-3.738-34.268-0.82361-8.2784-0.69757-7.362-3.738-21.176-1.969-8.946-7.2632-28.977-9.0925-34.356-0.36792-1.0818-1.5231-4.9172-2.6267-8.5231-3.2599-10.651-7.15-20.371-12.022-30.138-2.5382-5.088-5.93-12.574-9.4967-21.264-2.1461-5.2286-4.3084-10.429-4.8493-11.51-0.54097-1.0818-1.8907-4.3204-3.0309-7.2051-2.9271-7.4059-9.7106-20.22-13.336-25.218-4.0294-5.5557-7.0573-10.708-8.0823-13.004-0.90144-2.5134 4.2948-2.2442 8.0823-2.4603z" fill="#835e36"/>
  <path d="m156.21-44.378a73.277 13.6 0 1 1 -0.001038 -0.073345" fill="#a8a8bd" stroke-linecap="round" stroke-linejoin="round" stroke-width="2.09"/>
  <path d="m97.624-61.156c-19.152-0.097095-38.431 0.56904-47.295 2.0209-2.0032 0.32808-32.218 4.7428-38.465 5.7113-16.805 2.6051-27.98 5.0784-47.397 10.72-29.366 8.5321-46.319 15.771-66.274 28.205-8.444 5.2616-29.914 23.063-36.334 30.138-2.4542 2.7044-13.565 15.286-14.919 16.87-1.3546 1.5839-4.7016 5.4664-7.4089 8.6109-7.3382 8.5231-10.711 18.391-12.11 23.598-1.0439 7.3892-1.8809 9.9206-2.3014 18.929 0.048187 6.0178 3.4811 9.8233 10.657 11.862 3.4018 0.96653 8.5607-0.20226 14.006-3.251 2.0825-1.1661 7.4627-3.9739 11.976-6.2385 7.8477-3.9377 12.262-6.8354 18.979-12.214 1.6834-1.3477 4.9176-3.5221 7.1044-4.8326 3.0823-1.8472 6.3854-4.4963 10.555-7.205 15.485-10.06 37.322-15.874 44.656-11.95 3.9995 2.1401 4.0686 2.8356 1.6239 9.4017-4.2456 11.403-3.0827 19.312 2.3488 23.561 5.1243 2.7772 13.535 1.0557 17.239-0.012535 5.4358-1.5678 9.3192-3.2367 32.274-14.146 4.5093-2.1431 11.301-4.8164 15.122-5.8871 5.9984-1.6808 19.524-4.363 31.665 0.26361 13.305 4.8144 14.928 6.1121 23.14 19.155 3.5316 5.6089 10.046 11.474 16.746 16.607 6.1991 4.7632 14.759 5.3221 24.764 1.6695 6.4795-2.3656 10.316-4.6543 15.224-9.3139 12.446-14.66 37.73-20.514 44.45-18.649 9.2839 1.1722 16.275 3.6925 33.902 14.168 1.9051 0.93937 13.323 8.7598 16.239 10.368 2.9155 1.6084 20.202 11.282 22.633 12.389 7.0554 3.213 17.291 0.9697 21.415-2.3724 4.4438-5.6758 4.7962-4.578 5.582-15.552 1.0624-14.836 1.2646-15.488 3.1462-17.222 7.1776-5.2451 16.331-0.55077 18.259 0.062782 8.1055 3.0139 35.154 16.506 38.069 18.301 2.9156 1.7956 16.576 7.134 19.283 7.7322 5.3106 1.1734 10.156 1.1727 12.686 0 4.7644-2.6586 6.6371-6.1198 7.0029-7.205 0.57486-1.3659 1.8746-5.5334 2.3344-8.9624 1.4794-11.035 0.002045-23.32-3.5523-29.347-0.57419-0.97375-9.8392-17.192-14.615-22.054-1.9641-1.9997-15.315-15.795-21.212-19.594-3.1021-1.9989-9.4882-6.8457-14.107-10.72-4.6191-3.874-9.9316-8.0285-11.874-9.226-1.9428-1.1974-7.3721-4.5695-12.078-7.4686-11.683-7.1984-14.09-8.4338-18.472-10.105-2.0826-0.79415-7.8914-3.1754-12.89-5.272-18.191-7.6307-29.913-12.064-36.638-13.707-1.8742-0.45798-5.1234-1.3409-7.2059-2.0209-5.5659-1.8176-22.898-5.6614-27.707-6.1507-2.2908-0.23301-41.137-6.6968-43.844-7.205-8.1958-1.5384-27.229-2.3632-46.382-2.4603zm-13.498 4.0418c10.37-0.044941 37.377 0.74912 45.062 1.318 9.8494 0.72906 24.365 2.3963 31.056 3.6025 2.9156 0.52557 21.341 3.0786 25.068 4.1297 9.1592 2.5828 23.328 4.6011 25.779 5.3599 2.4505 0.75874 7.7147 2.3174 11.672 3.4268 19.483 5.4625 61.749 24.177 71.856 31.808 1.8743 1.415 4.8294 3.4501 6.4955 4.4812 4.2644 2.6392 18.211 15.069 20.095 16.695 1.8841 1.6253 5.6582 4.4372 8.4239 6.3264 4.4881 3.0659 15.652 15.748 18.776 19.594 9.3951 11.568 12.236 16.191 14.412 24.163 1.3541 4.9612 1.4742 7.1853 1.1164 14.059-0.23297 4.4753-0.59018 12.1-5.4081 17.105-3.3464 2.2735-6.9175 1.6356-10.729 0.73218-9.5572-2.2651-18.477-7.1004-19.283-7.7322-1.9663-1.541-34.278-15.878-35.319-16.343-1.0413-0.46513-12.198-4.2759-15.934-4.0418-5.102 0.3195-9.8609 2.68-11.672 5.7113-1.2601 2.1096-2.7403 12.878-2.7402 20.121 0 6.1219-3.0459 8.9231-7.3654 11.988-3.0715 2.1789-10.473 1.4615-16.79-2.3221-3.4884-2.0894-13.515-7.7515-16.543-9.4896-3.0277-1.7382-8.132-4.5015-10.251-6.1507-19.052-13.473-40.317-20.217-48.896-19.875-16.323 0.75014-32.933 8.5969-42.818 19.736-5.514 7.041-19.855 11.641-26.275 10.879-8.2011-1.352-20.395-13.475-23.795-19.264-6.9705-11.869-13.414-16.758-28.012-21-8.9129-2.5903-20.502-2.3694-31.056 0.61509-3.3007 0.93332-9.6982 2.9689-12.686 4.4812-2.9882 1.5122-8.238 3.8662-11.57 5.272-3.3321 1.4058-18.335 8.8776-23.952 10.632-5.7337 1.7906-10.909 1.8968-13.498 0.17574-2.4393-1.6506-3.0447-5.405-3.0448-8.3473 0-2.7341 1.8384-8.9078 3.7552-12.565 2.0797-3.9681 1.9974-6.5775-0.40599-9.0503-4.4156-4.5432-11.104-5.7768-20.298-3.6904-2.4824 0.56335-20.414 5.7485-26.794 9.0503-2.6289 1.3605-6.5674 3.6969-8.7283 5.272-2.161 1.5751-6.3201 4.4881-9.2357 6.4143-2.9155 1.9262-6.7242 4.6738-8.4238 6.0628s-13.37 8.7915-15.224 10.017c-1.854 1.2252-16.664 8.0324-18.776 8.6109-3.6678 1.0046-8.3016 0.79494-11.773-2.795-2.3998-4.9048-0.66757-12.447 0.091827-17.427 1.4671-9.861 2.0918-10.855 5.0726-17.075 1.9015-3.2357 12.932-17.598 16.047-20.343 3.6668-3.2316 10.019-12.101 11.469-13.092 6.3936-7.6724 22.052-20.224 26.794-23.812 10.993-8.3156 25.666-16.847 38.262-22.318 8.6132-3.7411 23.171-9.0836 29.534-10.808 3.1238-0.84644 10.114-2.7736 15.528-4.3055 13.449-3.805 20.71-5.2877 45.773-9.4896 14.215-2.3833 29.502-3.9651 30.752-4.1297 7.3561-0.96937 27.014-2.3404 34.406-2.3724z" fill="#c3c3d2"/>
  <g transform="matrix(.94224 0 0 .81949 407.66 107.58)">
   <g stroke-linecap="round" stroke-linejoin="round">
    <g stroke="#390308">
     <path d="m-266.73-233.28a76.087 77.143 0 1 1 -152.17 0 76.087 77.143 0 1 1 152.17 0z" fill="#a4101b" stroke-width="3.75"/>
     <path d="m-358.51-289.53c7.6896 6.2579 18.334 15.651 28.234 7.8483 5.6392-3.1196 13.281-8.1179 19.266-2.8483" fill="none" stroke-width="4.062"/>
    </g>
    <path d="m-342.91-304.27c-12.436-0.2652-25.836 2.2861-35.208 11.039-8.0977 10.001-0.67535 27.628 12.422 28.103 13.269 1.1732 26.006-3.9516 39.152-4.7877 11.457-1.1616 23.496 1.5829 32.473 9.037 11.092 8.8174 16.943 22.975 17.076 36.969 0.20892 5.2339-0.14981 10.477-0.84036 15.665 4.0308-5.2955 3.9166-12.331 5.0583-18.606 1.2221-14.86-2.4007-30.187-10.669-42.647-7.7606-8.2947-20.476-11.522-31.186-7.591-13.667 3.2484-28.394 4.5565-42.016 0.44086-4.2952-1.565-9.9402-4.42-9.2725-9.8626 0.50766-5.2376 5.7628-8.7949 10.79-8.4993 18.742-3.432 39.254-1.9477 55.739 8.316 5.723 0.47372-4.1527-5.4398-6.1254-6.9122-11.054-7.133-24.254-10.81-37.392-10.664z" fill="#ebb4b5" opacity=".439" stroke-width="3.75"/>
   </g>
   <path d="m-322.26-285.82a15 6.2072 0 1 1 -30 0 15 6.2072 0 1 1 30 0z" fill-rule="evenodd" opacity=".303" stroke-width=".312"/>
   <g stroke-linecap="round" stroke-linejoin="round">
    <path d="m-284.14-247.4a23.699 28.326 0 1 1 -47.398 17.01 23.699 28.326 0 1 1 47.398 -17.01z" fill="url(#a)" stroke-width="4.062"/>
    <path d="m-401.29-267.66c-7.7324 11.616-11.89 24.945-10.962 38.469 0.64624 31.758 28.732 61.045 64.388 68.406-35.004-16.052-58.598-45.748-58.598-79.812 0-9.4158 1.8308-18.5 5.1714-27.062z" fill="#5b050b" opacity=".652" stroke-width="3.75"/>
   </g>
   <g fill-rule="evenodd">
    <path d="m-341.57-280.07c1.8187-40.913 8.2183-82.68-1.9343-123.04-5.2335-24.023-12.676-47.827-24.768-69.329-2.2184-5.7223 4.718-8.1917 5.5074-1.3796 11.783 19.276 18.7 40.951 23.875 62.807 5.2575 19.645 7.934 39.891 8.0367 60.225 0.35736 22.25-0.62088 44.522-1.2174 66.74-0.81754 4.1038-6.0611 7.6824-9.499 3.9711z" fill="#9e6800" stroke="#390308"/>
    <path d="m-365.63-474.07c-0.13019 6.2477 5.3826 11.915 7.4854 17.904 11.714 27.661 19.608 57.164 22.202 87.125 2.1108 29.968-1.9082 60.23-2.687 89.94 7.6108 0.18607 4.7357-9.8489 5.5112-14.714 0.8584-38.038 3.4397-76.836-6.8303-113.96-5.2387-22.208-12.487-44.139-24.118-63.862-0.30389-0.6362-0.3223-2.9566-1.5625-2.4375z" fill="url(#b)" opacity=".798" stroke-width=".312"/>
    <g stroke-linecap="round" stroke-linejoin="round" stroke-width="2.5">
     <path d="m-361.27-454.18c-11.431-2.1513-12.594-16.132-21.079-21.86-9.7267-8.2688 1.5972-19.874 11.417-14.03 11 3.6485 9.7457 17.044 17.387 23.871 6.1564 6.1556-1.6147 11.615-7.7248 12.019z" fill="#764500" stroke="#3e1b13"/>
     <path d="m-375.83-487.57c-3.0504 4.1875 4.2301 7.6636 5.7933 11.381 3.4678 4.869 6.3914 15.67 13.468 13.619 3.2389-1.25-0.73184-4.9023-2.5-7.5-1.7682-2.5976-2.5-6.25-3.75-8.75-2.3955-4.5963-7.5-12.5-13.011-8.75z" fill="#573200"/>
     <path d="m-380.91-477.4c8.2426 5.5264 9.3863 18.568 19.844 21.125-7.2801-5.6908-8-15.044-16.75-20.044-2.5-1.25-3.6925-1.8632-3.0938-1.0809z" fill="#8f5400"/>
    </g>
   </g>
  </g>
  <g fill-rule="evenodd">
   <path d="m-1.7625-30.082c2.2286-0.003241 19.716-3.5358 28.134-7.1966 11.161-4.8535 16.191-5.7573 29.789-5.7573 11.411 0 18.558 4.4718 28.134 8.636 9.9348 4.3203 19.119-0.91854 28.134-2.8787 11.886-2.5842 22.847-4.2384 29.789 1.7992 8.5458 7.4324 2.8733 15.208-11.584 18.352-17.523 3.81-36.225 6.8768-54.613 10.075-15.117 2.6295-25.004 6.8774-39.718 4.318-7.8957-1.3734-14.134-10.853-19.859-15.833-6.1486-5.3476-11.1-3.7909-18.204-11.515z" fill="#ededff"/>
   <path d="m18.128-36.56c22.137-9.3262 46.974-14.5 65.124 4.6493 21.28 5.1751 41.323-17.26 61.403-1.2005l3.4905 1.2663 3.5552 1.0423" fill="none" stroke="#c3c3d2" stroke-linecap="round" stroke-linejoin="round" stroke-width="1.78"/>
  </g>
  <g fill="#b96408" stroke="#6c4a19" stroke-linecap="round" stroke-linejoin="round" stroke-width="2.09">
   <path d="m-67.906 147.61a2.6843 3.4726 0 1 1 -0.023468 0.018753"/>
   <path d="m-40.066 102.19a2.6843 3.4726 0 1 1 -0.023464 0.018753"/>
   <path d="m13.404 87.549a2.9511 3.9371 0 1 1 -0.02043 0.021248"/>
   <path d="m56.694 109.87a3.3006 4.5963 0 1 1 -0.014198 0.024818"/>
   <path d="m-84.946 73.34a2.6843 3.4726 0 1 1 -0.023476 0.01873"/>
   <path d="m-6.3857 126.49a2.8134 3.6948 0 1 1 -0.022119 0.019928"/>
   <path d="m-185.85 107.14a3.1368 4.276 0 1 1 -0.017624 0.023041"/>
   <path d="m-91.1 114.82a2.6843 3.4726 0 1 1 -0.023476 0.018745"/>
   <path d="m-137 100.96a2.6843 3.4726 0 1 1 -0.023468 0.018738"/>
   <path d="m11.938 156.17a2.9733 3.9766 0 1 1 -0.020137 0.021515"/>
   <path d="m251.34 155.29a3.2011 4.3985 0 1 1 0.016495 0.023788"/>
   <path d="m229.6 116.72a3.2328 4.4601 0 1 1 0.015793 0.024078"/>
   <path d="m166.45 93.787a3.3587 4.7193 0 1 1 0.012558 0.025421"/>
   <path d="m128.1 114.33a3.4472 4.9332 0 1 1 0.008896 0.026649"/>
   <path d="m290.96 90.888a3.2328 4.4601 0 1 1 0.015778 0.024101"/>
   <path d="m189.74 134.14a3.2522 4.4985 0 1 1 0.015366 0.024277"/>
   <path d="m365.81 113.77a3.2476 4.4894 0 1 1 0.015472 0.024246"/>
   <path d="m310.83 125.87a3.1406 4.2832 0 1 1 0.017578 0.023102"/>
   <path d="m163.54 163.83a3.3402 4.6794 0 1 1 0.013153 0.025299"/>
   <path d="m95.035 152.73a3.3426 5.0825 0 1 1 -0.004807 0.02742"/>
  </g>
  <g fill="#e1e1ff">
   <path d="m-72.512-11.398c-33.679 4.0836-51.767 32.041-71.853 52.579-6.1914 8.7406-22.232 34.145-4.0355 35.499 28.906-14.793 52.845-41.982 89.086-42.29 28.523-6.1846 11.39 39.446 35.393 29.912 23.582-15.313 58.217-26.006 85.043-10.43 15.579 9.1656 22.149 29.396 42.364 32.093 18.943-2.1774 26.183-22.653 45.794-24.986 23.754-6.5522 50.481 0.77051 67.127 16.548 10.814 8.1488 35.466 22.754 43.141 4.6314-2.2311-14.297 12.061-28.935 29.321-23.758 20.158 3.7641 35.285 17.056 53.675 23.955 23.825 6.7666 19.747-23.687 1.0723-26.453-24.307-14.643-49.115-30.16-77.742-37.54-34.151-5.5077-60.907 19.037-92.911 23.892-33.918-1.4439-63.107-28.704-98.134-18.85-28.529 10.078-66.618 14.804-90.64-5.8203-13.638-14.864-32.596-32.092-56.701-28.983z"/>
   <path d="m42.359-34.201c-14.233 3.0357-20.849 4.9319-9.3018 17.613 10.803 22.15 35.65 6.288 53.264 6.2173 11.142-3.0345 61.073-6.8759 28.518-15.768-6.6799-1.2547-36.472 8.0027-49.503-7.0974-7.0081-4.7156-15.126-2.4276-22.977-0.96454z" fill-rule="evenodd"/>
  </g>
 </g>
</svg>
